<svg width="307" height="86" fill="none" xmlns="http://www.w3.org/2000/svg">
  <path d="M84.5 22.1h8.3c2.4 0 4.3.7 5.5 1.9.9.9 1.5 2.3 1.5 3.8v.1c0 3.2-2.2 5.1-5.3 5.7l6 7.9h-2.7L92.2 34h-5.6v7.5h-2.2V22.1h.1Zm8.1 9.9c2.9 0 5-1.5 5-4v-.1c0-2.4-1.8-3.8-5-3.8h-6V32h6ZM103.1 31.8c0-5.4 4-10.1 9.9-10.1s9.9 4.6 9.9 10v.1c0 5.4-4 10-9.9 10s-9.9-4.6-9.9-10Zm17.5 0c0-4.5-3.2-8.1-7.7-8.1-4.4 0-7.6 3.5-7.6 8v.1c0 4.4 3.2 8 7.7 8s7.6-3.5 7.6-8ZM131.4 33.8l-8.1-11.7h2.7l6.5 9.7 6.6-9.7h2.6l-8.1 11.7v7.7h-2.2v-7.7ZM148.7 21.9h2.1l8.8 19.5h-2.4l-2.3-5.1h-10.6l-2.3 5.1h-2.2l8.9-19.5Zm5.5 12.5-4.4-9.9-4.4 9.9h8.8ZM162.9 22.1h2.2v17.4H176v2h-13.1V22.1ZM186 38.7l1.4-1.6c2 1.8 4 2.7 6.7 2.7 2.6 0 4.3-1.4 4.3-3.3v-.1c0-1.8-1-2.8-5-3.7-4.5-1-6.5-2.4-6.5-5.6V27c0-3 2.7-5.3 6.4-5.3 2.8 0 4.9.8 6.8 2.4l-1.3 1.7c-1.8-1.5-3.6-2.1-5.6-2.1-2.5 0-4.1 1.4-4.1 3.1v.2c0 1.8 1 2.9 5.3 3.8 4.3.9 6.3 2.5 6.3 5.5v.1c0 3.3-2.8 5.5-6.6 5.5-3.2-.1-5.8-1.2-8.1-3.2ZM203.6 31.8c0-5.4 4-10.1 9.9-10.1s9.9 4.6 9.9 10v.1c0 5.4-4 10-9.9 10s-9.9-4.6-9.9-10Zm17.5 0c0-4.5-3.2-8.1-7.7-8.1-4.4 0-7.6 3.5-7.6 8v.1c0 4.4 3.2 8 7.7 8s7.6-3.5 7.6-8ZM226.6 31.8c0-5.5 4.1-10.1 9.8-10.1 3.5 0 5.6 1.2 7.6 3.1l-1.5 1.6c-1.6-1.6-3.5-2.7-6.1-2.7-4.3 0-7.5 3.5-7.5 8v.1c0 4.5 3.2 8 7.5 8 2.7 0 4.4-1 6.3-2.8l1.4 1.4c-2 2.1-4.2 3.4-7.8 3.4-5.5 0-9.7-4.4-9.7-10ZM247.6 22.1h2.2v19.4h-2.2V22.1ZM254.9 22.1h14v2h-11.8v6.6h10.6v2h-10.6v6.8h12v2h-14.2V22.1ZM278 24.1h-6.5v-2h15.2v2h-6.5v17.4H278V24.1ZM296.4 33.8l-8.1-11.7h2.7l6.5 9.7 6.6-9.7h2.6l-8.1 11.7v7.7h-2.2v-7.7ZM83.6 59.6c0-5.4 4-10.1 9.9-10.1s9.9 4.6 9.9 10v.1c0 5.4-4 10-9.9 10s-9.9-4.7-9.9-10Zm17.6 0c0-4.5-3.2-8.1-7.7-8.1-4.4 0-7.6 3.5-7.6 8v.1c0 4.4 3.2 8 7.7 8 4.4-.1 7.6-3.6 7.6-8ZM108.6 49.8h13.9v2h-11.8v6.9h10.5v2h-10.5v8.5h-2.2V49.8h.1ZM143.8 69.6c-5.7 0-10-4.4-10-10v-.1c0-5.5 4.2-10 10.1-10 3.7 0 5.9 1.2 7.7 3l-2.7 3.1c-1.5-1.4-3-2.2-5-2.2-3.3 0-5.6 2.7-5.6 6v.1c0 3.3 2.3 6.1 5.6 6.1 2.2 0 3.6-.9 5.1-2.3l2.7 2.7c-1.9 2.2-4.2 3.6-7.9 3.6ZM168.1 69.2v-7.8h-7.9v7.8H156V49.8h4.3v7.7h7.9v-7.7h4.3v19.4h-4.4ZM177.9 69.2V49.8h14.6v3.8h-10.4v3.9h9.1v3.8h-9.1v4.1h10.5v3.8h-14.7ZM212.5 69.2V56.5l-5.5 8.3h-.1l-5.4-8.2v12.6h-4.2V49.8h4.6L207 58l5.1-8.2h4.6v19.4h-4.2ZM222.4 69.2V49.8h4.3v19.4h-4.3ZM239.2 69.5c-2.9 0-5.9-1-8.2-3.1l2.5-3c1.7 1.4 3.6 2.4 5.8 2.4 1.7 0 2.8-.7 2.8-1.8v-.1c0-1.1-.7-1.6-3.9-2.5-3.9-1-6.4-2.1-6.4-5.9v-.1c0-3.5 2.8-5.9 6.8-5.9 2.8 0 5.2.9 7.2 2.5l-2.2 3.2c-1.7-1.2-3.4-1.9-5-1.9s-2.5.7-2.5 1.7v.1c0 1.3.8 1.7 4.2 2.6 3.9 1 6.2 2.4 6.2 5.8v.1c-.1 3.7-3.1 5.9-7.3 5.9ZM259.3 53.7v15.5H255V53.7h-5.9v-3.9h16.1v3.9h-5.9ZM281.1 69.2l-4.2-6.2h-3.4v6.2h-4.3V49.8h8.9c4.6 0 7.3 2.4 7.3 6.4v.1c0 3.1-1.7 5.1-4.2 6l4.7 6.9h-4.8Zm.1-12.8c0-1.8-1.3-2.8-3.4-2.8h-4.2v5.6h4.3c2.1 0 3.3-1.1 3.3-2.8ZM299.2 61.5v7.7h-4.3v-7.7l-7.5-11.8h5l4.6 7.8 4.7-7.8h4.9l-7.4 11.8ZM73.9 17.4c-1.8-1.8-3.8-3.4-5.9-4.9-2.1-1.4-4.4-2.7-6.8-3.7-2.4-1-4.9-1.8-7.5-2.3-2.6-.5-5.3-.8-8-.8v15.7c1.7 0 3.3.2 4.9.5 1.6.3 3.1.8 4.5 1.4 1.4.6 2.8 1.4 4.1 2.2 1.3.9 2.5 1.9 3.6 3l11.1-11.1ZM62.8 62.8c-1.1 1.1-2.3 2.1-3.6 3-1.3.9-2.7 1.6-4.1 2.2-1.4.6-3 1.1-4.5 1.4-1.5.3-3.2.5-4.9.5-1.7 0-3.3-.2-4.9-.5-1.6-.3-3.1-.8-4.5-1.4-1.4-.6-2.8-1.4-4.1-2.2-1.3-.8-2.5-1.9-3.6-3L17.5 73.9c1.8 1.8 3.8 3.4 5.9 4.9 2.1 1.4 4.4 2.7 6.8 3.7 2.4 1 4.9 1.8 7.5 2.3 2.6.5 5.3.8 8 .8s5.4-.3 8-.8c2.6-.5 5.1-1.3 7.5-2.3 2.4-1 4.7-2.2 6.8-3.7 2.1-1.4 4.1-3.1 5.9-4.9L62.8 62.8Z" fill="#004976"/>
  <path d="M28.5 62.8c-1.1-1.1-2.1-2.3-3-3.6-.9-1.3-1.6-2.7-2.2-4.1-.6-1.4-1.1-3-1.4-4.5-.3-1.6-.5-3.2-.5-4.9H5.7c0 2.8.3 5.4.8 8 .5 2.6 1.3 5.1 2.3 7.5 1 2.4 2.2 4.7 3.7 6.8 1.4 2.1 3.1 4.1 4.9 5.9l11.1-11.1Z" fill="#EEDC00"/>
  <path d="M21.4 45.7c0-1.7.2-3.3.5-4.9.3-1.6.8-3.1 1.4-4.5.6-1.4 1.4-2.8 2.2-4.1.8-1.3 1.9-2.5 3-3.6L17.4 17.4c-1.8 1.8-3.4 3.8-4.9 5.9-1.4 2.1-2.7 4.4-3.7 6.8-1 2.4-1.8 4.9-2.3 7.5-.5 2.6-.8 5.3-.8 8h15.7v.1Z" fill="#97D700"/>
  <path d="M28.5 28.5c1.1-1.1 2.3-2.1 3.6-3 1.3-.9 2.7-1.6 4.1-2.2 1.4-.6 3-1.1 4.5-1.4 1.6-.3 3.2-.5 4.9-.5V5.7c-2.8 0-5.4.3-8 .8-2.6.5-5.1 1.3-7.5 2.3-2.4 1-4.7 2.2-6.8 3.7-2.1 1.4-4.1 3.1-5.9 4.9l11.1 11.1Z" fill="#48A9C5"/>
  <path opacity=".5" d="M54.3 1.3C51.5.8 48.6.5 45.7.5c-3.1 0-6.2.3-9.1.9-2.9.6-5.8 1.5-8.5 2.6s-5.3 2.5-7.7 4.2c-2.4 1.6-4.6 3.5-6.7 5.5-2.1 2-3.9 4.3-5.5 6.7L29.9 35c.7-1 1.5-2 2.3-2.8.9-.9 1.8-1.6 2.8-2.3 1-.7 2.1-1.3 3.2-1.8s2.3-.9 3.6-1.1c1.2-.3 2.5-.4 3.8-.4 1.2 0 2.4.1 3.6.3l5.1-25.6Z" fill="#48A9C5"/>
  <path opacity=".5" d="M32.2 59.1c-.9-.9-1.6-1.8-2.3-2.8-.7-1-1.3-2.1-1.8-3.2s-.9-2.3-1.1-3.6c-.2-1.3-.4-2.5-.4-3.8 0-1.2.1-2.4.3-3.6l-25.7-5c-.5 2.8-.8 5.7-.8 8.6 0 3.1.3 6.2.9 9.1.6 2.9 1.5 5.8 2.6 8.5s2.5 5.3 4.2 7.7c1.6 2.4 3.5 4.6 5.5 6.7 2 2 4.3 3.9 6.7 5.5L35 61.4c-1-.7-1.9-1.5-2.8-2.3Z" fill="#EEDC00"/>
</svg>
